<svg xmlns="http://www.w3.org/2000/svg" viewBox="0 0 320 220" role="img" aria-label="橙C美式">
  <defs>
    <linearGradient id="bg" x1="0" x2="1" y1="0" y2="1">
      <stop offset="0" stop-color="#ffd36e"/>
      <stop offset="1" stop-color="#f47c20" stop-opacity="0.82"/>
    </linearGradient>
    <linearGradient id="coffee" x1="0" x2="0" y1="0" y2="1">
      <stop offset="0" stop-color="#8f5a35"/>
      <stop offset="1" stop-color="#2f1b13"/>
    </linearGradient>
  </defs>
  <rect width="320" height="220" rx="28" fill="url(#bg)"/>
  <circle cx="248" cy="50" r="62" fill="#fffaf4" opacity="0.24"/>
  <circle cx="42" cy="184" r="74" fill="#fffaf4" opacity="0.18"/>
  <ellipse cx="160" cy="184" rx="82" ry="14" fill="#2d241d" opacity="0.16"/>
  <circle cx="84" cy="96" r="24" fill="#f47c20"/><path d="M84 72a24 24 0 0 1 20 37" fill="none" stroke="#ffd36e" stroke-width="7"/><path d="M84 80v32M68 96h32" stroke="#fff2d6" stroke-width="3" opacity="0.75"/>
  <g>
    <rect x="96" y="74" width="96" height="110" rx="22" fill="#ffffff" opacity="0.9"/>
    <rect x="104" y="82" width="80" height="94" rx="18" fill="#fffaf4"/>
    <rect x="102" y="94" width="84" height="82" rx="18" fill="url(#coffee)" opacity="0.9"/>
    <rect x="112" y="88" width="64" height="10" rx="5" fill="#ffffff" opacity="0.82"/>
  </g>
  <path d="M210 82c18 6 32 22 32 44 0 20-12 38-30 45" fill="none" stroke="#fffaf4" stroke-width="10" stroke-linecap="round" opacity="0.72"/>
</svg>